/* XPM */
static char *result[] = {
/* columns rows colors chars-per-pixel */
"47 64 180 2 ",
"   c #090909",
".  c #040404",
"X  c #100F08",
"o  c #121007",
"O  c #16120A",
"+  c #1B150D",
"@  c #211C0E",
"#  c #201D12",
"$  c #2D2515",
"%  c #332B16",
"&  c #382F18",
"*  c #312616",
"=  c #3D331A",
"-  c #353535",
";  c #44391D",
":  c #4C3F22",
">  c #4D462D",
",  c #554724",
"<  c #64532C",
"1  c #6B5A2E",
"2  c #6D5A31",
"3  c #756334",
"4  c #7C6836",
"5  c #414141",
"6  c #836D3B",
"7  c #8F793E",
"8  c #88733A",
"9  c #957C43",
"0  c #987D45",
"q  c #97744F",
"w  c #98744F",
"e  c #9B7F48",
"r  c #967A4F",
"t  c #997551",
"y  c #997B51",
"u  c #A37D55",
"i  c #968145",
"p  c #9B8344",
"a  c #95844D",
"s  c #9A844B",
"d  c #9D8B4F",
"f  c #968550",
"g  c #9A8452",
"h  c #9F8F58",
"j  c #9B8C52",
"k  c #A08746",
"l  c #A28947",
"z  c #A2854A",
"x  c #A38C4C",
"c  c #AA8D4C",
"v  c #AD914C",
"b  c #B2964E",
"n  c #B89C4F",
"m  c #B5984E",
"M  c #AA8357",
"N  c #AF8F51",
"B  c #AC855A",
"V  c #A08F5E",
"C  c #B58B5E",
"Z  c #A69050",
"A  c #AB9253",
"S  c #A3915B",
"D  c #AA955F",
"F  c #AF9A5A",
"G  c #B89756",
"H  c #B49C55",
"J  c #BC9D54",
"K  c #B69E5D",
"L  c #B99859",
"P  c #B39451",
"I  c #BBA25A",
"U  c #9A8A65",
"Y  c #988769",
"T  c #9A8C69",
"R  c #998E76",
"E  c #988F78",
"W  c #A08F62",
"Q  c #A59261",
"!  c #A89561",
"~  c #B59060",
"^  c #B59E62",
"/  c #BD9C64",
"(  c #B5A464",
")  c #B6A568",
"_  c #BFAD6E",
"`  c #BBA963",
"'  c #C19C5C",
"]  c #C2A354",
"[  c #C4A758",
"{  c #C7A958",
"}  c #CDAC59",
"|  c #C9A65B",
" . c #CFB15F",
".. c #D3B35E",
"X. c #D9B85F",
"o. c #C29566",
"O. c #C79868",
"+. c #CB9B6A",
"@. c #C89D64",
"#. c #C0A960",
"$. c #CCAA63",
"%. c #C6AB69",
"&. c #D0A961",
"*. c #D1A56C",
"=. c #D8A76F",
"-. c #CFB061",
";. c #CBB46A",
":. c #D2B664",
">. c #DBB563",
",. c #DCBB62",
"<. c #D2BB6C",
"1. c #DAA672",
"2. c #DDA973",
"3. c #C4B272",
"4. c #CAB775",
"5. c #CEBA77",
"6. c #D9B773",
"7. c #E2BD64",
"8. c #E4BA69",
"9. c #E9BF6B",
"0. c #E2AD76",
"q. c #E5B175",
"w. c #EBB47B",
"e. c #ECB976",
"r. c #F0BD77",
"t. c #F0B77E",
"y. c #F6BE7E",
"u. c #DDC573",
"i. c #D6C27C",
"p. c #E5C164",
"a. c #EAC566",
"s. c #EFC967",
"d. c #E4C269",
"f. c #ECC46A",
"g. c #EDCB6B",
"h. c #F1CB67",
"j. c #F2C66E",
"k. c #F2CC69",
"l. c #F0D06F",
"z. c #EBCF74",
"x. c #EBC778",
"c. c #E7CB79",
"v. c #EFCF7D",
"b. c #E3C873",
"n. c #F4C573",
"m. c #F1CC73",
"M. c #F5C27C",
"N. c #F1CC7D",
"B. c #EFD275",
"V. c #EED37B",
"C. c #F0D071",
"Z. c gray55",
"A. c #9C9687",
"S. c #A19D91",
"D. c #A7A39A",
"F. c #AFABA2",
"G. c #B4B2AB",
"H. c #BAB8B4",
"J. c #BBB9B6",
"K. c #F7BD81",
"L. c #DDC880",
"P. c #E2CD83",
"I. c #F4C381",
"U. c #F1CA80",
"Y. c #EDD789",
"T. c #EFD98A",
"R. c #E6D085",
"E. c #F4DD8D",
"W. c #F7E08F",
"Q. c #C9C9C7",
"!. c #C8C8C6",
"~. c #D5D4D4",
"^. c #DADADA",
"/. c #E3E1D8",
"(. c #ECECEC",
"). c gray90",
"_. c #F5F4ED",
"`. c gray95",
"'. c #FFFFFF",
"]. c None",
/* pixels */
"].].].].].].].].].].].].].].].].].].].; p ] ] 8 * ].].].].].].].].].].].].].].].].].].].].].].",
"].].].].].].].].].].].].].].@ p 7.a.k.k.k.k.k.k.k.h.b O ].].].].].].].].].].].].].].].].].].].",
"].].].].].].].].].].].].o X.k.h.k.k.k.k.k.h.k.h.h.k.h.h.} + ].].].].].].].].].].].].].].].].].",
"].].].].].].].].].].].% k.k.h.k.k.k.j.k.k.k.k.k.k.k.k.k.k.k.m ].].].].].].].].].].].].].].].].",
"].].].].].].].].].].; k.k.h.h.h.a.z 0 0 9 0 z m | 8.9.j.k.j.h.k., ].].].].].].].].].].].].].].",
"].].].].].].].].].* k.k.k.a.7 } 8.j.n.j.n.n.j.n.j.j.n.j.j.k.k.h.a.l ].].].].].].].].].].].].].",
"].].].].].].].].+ n.n.j.k.k.k.k.n.j.f.8.9.j.n.j.j.n.j.n.j.k.j.k.k.h.p.O ].].].].].].].].].].].",
"].].].].].].].].8.n.y.n.k.k.p.p J j.j.j.n.j.f.&.c 0 e c N z 9 z J ] n v i = ].].].].].].].].].",
"].].].].].].].8 M.y.y.n.h.7 k.k.k.j.k.k.j.j.j.j.j.j.j.j.j.j.j.k.h.k.k.k.h.k.h.7 ].].].].].].].",
"].].].].].].* n.y.u B n.7.h.k.k.k.k.k.k.k.k.k.k.k.k.k.h.k.k.k.k.h.k.k.k.h.h.h.k.v ].].].].].].",
"].].].].].].n.M.y.0.y.n.k.k.} s 4.T.E.E.P.;.h a J X.h.k.k.k.k.k.k.a.{ p S _ 5.i.i.3.# ].].].].",
"].].].].].8.r.y.+.B y.n.s R.W.W.W.E.E.E.W.W.W.W.W.W.W.Y.i.4.5.i.E.W.W.W.W.W.W.W.W.W.W.> ].].].",
"].].].].' n.M.y.u u y.s E.W.W.5.h s J ..p.7. .v s ) P.W.E.W.W.W.E.i.) d s Z A x d a S O ].].].",
"].].].; k.y.y.2.K.+.y.r 3.x k.k.k.` Y R Y %.j.j.n.k.n.j.f.7.9.j.k.j.j.f.p.g.h.h.k.k.h.].].].].",
"].].].j.n.y.0.1.K.u y.j.k.h.k.! `.'.'.'.'.'.~. .k.k.h.h.k.h.h.h.k.E (.'.'.'.J. .h.k.h.% ].].].",
"].].$ n.e.w t.w 2.2.M.j.k.k.D '.'.'.'.'.'.'.'.'.I k.k.k.k.k.h.s.^.'.'.'.'.'.'.'.Q h.h.4 ].].].",
"].].' n.y.C t.K.q.y.&.k.k.k.`.'.'.'.'.'.'.'.'.'.'.,.h.k.k.k.h.S.'.'.'.'.'.'.'.'.'.K h.} ].].].",
"].].j.M.q.K.K.K.y.' j.k.k.K '.'.'.'.'.'.'.'.'.'.'.J.h.h.k.k.h.'.'.'.'.'.'.'.'.'.'.(.h.g.].].].",
"].].n.n.y.K.K.K.y.M.j.k.k.R '.'.'.'.'.'.'.'.'.'.'.'.:.k.k.k...'.'.'.'.'.'.'.'.'.'.'.h k.].].].",
"].$ n.M.K.K.K.y.I.n.k.k.k.D.'.'.'.'.'.'.~.^.'.'.'.'.A.k.h.h.K '.'.'.'.'.'.- . '.'.'.!.k.].].].",
"].2 r.y.K.K.K.w.I.M.j.k.k.H.'.'.'.'.'.'.  5 '.'.'.'.Q.h.h.g.S '.'.'.'.'.'.'.Z.'.'.'.`.h.o ].].",
"].P n.y.K.K.K.w K.n.k.k.k.D.'.'.'.'.'.'.'.'.'.'.'.'.G.k.k.g.I '.'.'.'.'.'.'.'.'.'.'.Q.k.= ].].",
"].7.n.y.K.K.K.w M.n.k.l.l.S '.'.'.'.'.'.'.'.'.'.'.'.D h.m h.g.'.'.'.'.'.'.'.'.'.'.'.! h.1 ].].",
"].j.y.y.K.K.K.w M.N.C.C.l.k./.'.'.'.'.'.'.'.'.'.'.Q.l.k.h.a.h.T '.'.'.'.'.'.'.'.'.H.k.h.k ].].",
"].k.n.y.O.K.K.w y.m.z.B.C.C.:._.'.'.'.'.'.'.'.'.`.p.h.k.h.i h.h.E '.'.'.'.'.'.'.~.s.k.h.} ].].",
"].k.j.M.1.o.K.w.I.M.N.B.V.C.C.d.G.'.'.'.'.'.'.).X.h.k.k.l.,.h.h.h. .A.^.'.'.`.D.h.k.k.k.p.].].",
"].h.j.r.t.o.K.K.B I.N.N.v.C.C.k.k.a.^ E S.S.S h.h.k.k.l.B.B.p.h.k.h.k.k.k.h.h.k.k.l.k.k.k.].].",
"].k.j.@.K.K.K.K.o.I.I.U.B.V.B.C.l.k.h.h.l.h.h.k.l.h.k.k.B.B.i h.h.k.k.k.k.k.l.l.C.g.m.n.n.].].",
"].k.G M.K.w.K.K.K.u I.U.U.V.B.m.k.k.k.k.h.k.h.k.k.h.l.l.C.V.:.l.h.h.h.h.k.k.l.B.V.B.m.M.n.].].",
"].f.B.V.I.q K.K.K.K.q I.U.v.B.C.k.l.k.k.h.h.h.k.k.k.l.B.V.V.B.g.l.h.h.k.k.k.B.V.V.v.M.M.n.].].",
"].,.V.V.V.U.w.K.K.K.K.~ / v.v.N.C.k.k.k.h.h.k.k.h.l.l.C.V.V.V.d k.k.h.h.k.l.B.V.V.N.M.M.n.].].",
"].x V.Y.` ;.I.K.K.K.K.I.I.6.%.N.N.m.l.k.h.h.k.k.h.h.l.C.V.V.B.p k.k.h.k.l.B.V.V.V.N.I.M.n.].].",
"].].C.Y.V.V.y K.K.K.K.K.I.U.U.V.v.C.l.l.h.h.h.h.n l l l p l n h.k.k.k.l.B.V.V.V.N.I.I.n.j.].].",
"].].d.V.V.Y.v.K.K.K.K.K.K.I.U.U.N.V.l.l.l.l.h.h.l.h.h.l.h.l.h.h.k.k.l.l.B.V.V.V.n.y.y.n.7.].].",
"].].p B.Y.V.N.y K.K.K.K.K.I.I.U.U.V.B.B.l.h.h.h.h.h.h.h.h.h.h.h.k.k.l.B.V.V.B.B.M.y.M.j.] ].].",
"].].% m.v.V.I.O.K.K.K.K.K.I.I.U.U.V.l.l.l.l.l.h.h.l.h.h.h.h.h.h.k.k.B.V.V.V.C.x e.y.M.j.6 ].].",
"].].].k.n.M.M.K.K.K.K.K.K.K.I.I.v.K c.V.l.l.h.h.h.h.h.h.h.h.p.a.a.g.B.V.V.B.l.C.r.1.n.k.& ].].",
"].].].p k.n.y.y.K.K.K.K.K.K.K.I.A V.V.B.l.l.X.l p n s.h.h.k.h.h.h.l.z.u._ j i L M.w n.j.].].].",
"].].].].k.j.r.y.K.K.K.K.K.K.K.M.x.V.<.i I l.l.h.h.h.h.h.k.h.h.k.l.k.l.V.V.V.V.m.*.q.n.,.].].].",
"].].].].O k.j.y.K.K.K.K.K.K.I.*.N.V.V.V.B.l.h.l.h.h.h.h.h.h.k.h.k.k.l.V.;.j a $.M.n.k.+ ].].].",
"].].].].].; k.n.y.y.K.K.K.K.K.M.r 6.c.b.` :.k.k.k.h.k.h.h.k.k.k.h.k.h.l.V.V.V.B.l.k.; ].].].].",
"].].].].].].3 j.n.y.K.K.K.K.K.y.I.U.B.V.B.m.k.l.h.h.h.k.k.h.k.k.k.h.h.l.V.V.V.B.l...].].].].].",
"].].].].].].].b n.y.K.K.K.K.K.K.M.N.N.V.V.B.C.k.k.k.k.k.h.h.k.k.h.h.h.l.B.V.V.l.l.+ ].].].].].",
"].].].].].].].].9.n.y.K.K.K.K.K.I.N.N.V.V.C.l.l.k.h.k.k.k.h.h.k.h.h.h.l.l.V.B.l.,.].].].].].].",
"].].].].].].].].$ n.K.K.K.K.K.K.K.I.N.v.V.C.C.l.k.k.k.k.h.k.k.h.h.h.h.h.l.l.l.l.3 ].].].].].].",
"].].].].].].].].].>.M.y.K.K.K.K.K.I.M.N.C.V.C.l.k.k.k.k.k.h.h.k.k.k.h.k.k.k.l.k.$ ].].].].].].",
"].].].].].].].].].* n.M.K.K.K.K.K.I.I.U.N.B.C.l.k.k.k.h.h.k.h.h.k.k.k.k.h.h.k.k.].].].].].].].",
"].].].].].].].].].].f.n.K.K.K.K.K.K.I.U.N.V.B.C.k.k.h.k.h.h.k.k.k.k.k.k.h.k.k.k.].].].].].].].",
"].].].].].].].].].]., j.n.K.K.K.K.K.I.I.U.U.V.C.l.l.k.k.h.k.k.k.k.h.h.k.h.h.h.h.].].].].].].].",
"].].].].].].].].].].].j.n.y.K.K.K.K.K.I.U.V.v.C.C.k.k.k.h.k.k.k.k.k.h.k.h.h.h.a.].].].].].].].",
"].].].].].].].].].].].1 n.r.K.K.K.K.K.I.U.U.v.V.C.l.k.k.k.h.k.h.k.k.k.k.k.h.h.X.].].].].].].].",
"].].].].].].].].].].].].k.n.y.K.K.K.K.K.I.U.v.V.C.l.k.l.k.k.k.h.k.k.h.h.h.h.h.n ].].].].].].].",
"].].].].].].].].].].].].< n.M.y.K.K.K.K.I.U.N.V.V.C.l.k.k.k.h.h.h.k.h.h.k.h.k.p ].].].].].].].",
"].].].].].].].].].].].].].j.n.y.K.K.K.K.I.I.N.v.V.V.C.l.l.k.h.k.k.h.k.h.h.k.h.1 ].].].].].].].",
"].].].].].].].].].].].].].* n.y.y.K.K.K.K.I.M.v.V.B.B.m.l.k.k.k.k.k.k.h.k.k.k.; ].].].].].].].",
"].].].].].].].].].].].].].].z n.M.I.K.K.K.K.I.U.B.B.B.m.k.k.k.k.k.h.h.h.k.k.k.@ ].].].].].].].",
"].].].].].].].].].].].].].].].8.n.M.M.y.y.K.I.M.U.v.N.N.m.n.k.k.k.k.k.k.k.k.k.].].].].].].].].",
"].].].].].].].].].].].].].].].].a.j.n.M.y.y.K.I.I.M.M.M.M.M.M.n.n.n.M.n.n.k.k.].].].].].].].].",
"].].].].].].].].].].].].].].].].].0 j.j.n.M.y.y.I.M.I.I.I.I.y.y.M.M.M.M.n.k.v ].].].].].].].].",
"].].].].].].].].].].].].].].].].].].; k.k.n.n.y.M.I.M.I.M.K.K.y.M.n.n.n.j.| ].].].].].].].].].",
"].].].].].].].].].].].].].].].].].].].$ k.h.j.n.M.M.M.M.n.M.M.M.M.n.k.k.7 ].].].].].].].].].].",
"].].].].].].].].].].].].].].].].].].].].].1 k.j.j.n.n.n.n.n.n.n.n.k.k.; ].].].].].].].].].].].",
"].].].].].].].].].].].].].].].].].].].].].].].X 6 7.k.n.k.j.j.k.9.< ].].].].].].].].].].].].].",
"].].].].].].].].].].].].].].].].].].].].].].].].].].].].].].].].].].].].].].].].].].].].].].]."
};
