/* XPM */
static char *result[] = {
/* columns rows colors chars-per-pixel */
"48 64 108 2 ",
"   c #050707",
".  c #060907",
"X  c #060B09",
"o  c #090E0A",
"O  c #0B130C",
"+  c #0E190F",
"@  c #131D11",
"#  c #251911",
"$  c #3C1713",
"%  c #152313",
"&  c #182414",
"*  c #1A2A16",
"=  c #1C2F19",
"-  c #1E321A",
";  c #222515",
":  c #21351B",
">  c #253D1E",
",  c #212820",
"<  c #701A1A",
"1  c #5A211A",
"2  c #274220",
"3  c #2A4521",
"4  c #2E4C25",
"5  c #304F26",
"6  c #325226",
"7  c #345429",
"8  c #3A522F",
"9  c #375B2B",
"0  c #395D2C",
"q  c #385931",
"w  c #38513C",
"e  c #3D622D",
"r  c #3D6630",
"t  c #3F6831",
"y  c #46573B",
"u  c #48573E",
"i  c #435B3C",
"p  c #446C2F",
"a  c #426C33",
"s  c #49633A",
"d  c #45693B",
"f  c #457235",
"g  c #4B7535",
"h  c #4E7C36",
"j  c #4B7D3A",
"k  c #507E36",
"l  c #50793F",
"z  c #404442",
"x  c #464B46",
"c  c #425D41",
"v  c #4F5C46",
"b  c #4E524E",
"n  c #4F5A4B",
"m  c #545854",
"M  c #526E44",
"N  c #5C6E4F",
"B  c #4E7341",
"V  c #506D54",
"C  c #616B56",
"Z  c #68775D",
"A  c #6B7A5D",
"S  c #6D776A",
"D  c #941F20",
"F  c #AC2324",
"G  c #4D803B",
"H  c #51853C",
"J  c #568B3D",
"K  c #598C3C",
"L  c #5C923E",
"P  c #5D9540",
"I  c #5F9841",
"U  c #649E42",
"Y  c #78AA42",
"T  c #7C866E",
"R  c #8BBD45",
"E  c #858D77",
"W  c #8A927D",
"Q  c #90C246",
"!  c #96C847",
"~  c #98CA47",
"^  c #848585",
"/  c #8F9782",
"(  c #939594",
")  c #999A9A",
"_  c #9AA08B",
"`  c #A0A791",
"'  c #AEB59D",
"]  c #86A3AF",
"[  c #AAABAA",
"{  c #B0B1B1",
"}  c #BDC4AA",
"|  c #C3CAAF",
" . c #C5CCB1",
".. c #9FC0D0",
"X. c #A2C3D4",
"o. c #A6C8DA",
"O. c #A8CADC",
"+. c #ABCEE1",
"@. c #B6DBEF",
"#. c #BAE0F4",
"$. c #D6DEC1",
"%. c gray84",
"&. c #DADADA",
"*. c #DCE3C5",
"=. c #DFE7C8",
"-. c #E4ECCC",
";. c #EAF2D2",
":. c None",
/* pixels */
":.:.:.:.:.:.:.:.:.:.:.:.:.:.:.:.:.:.:.:.:.:.:.:.:.:.:.:.:.:.:.:.:.:.:.:.X % 0 & :.:.:.:.:.:.:.:.",
":.:.:.:.:.:.:.:.:.:.:.:.:.:.:.:.:.:.:.:.:.:.:.:.:.:.:.:.:.:.:.:.:.:.+ f P H G G j r :.:.:.:.:.:.",
":.:.:.:.:.:.:.:.:.:.:.:.:.:.:.:.:.:.:.:.:.:.:.:.:.:.:.:.:.:.:.:.. r j ! ~ Q G G j j j 3 :.:.:.:.",
":.:.:.:.:.:.:.:.:.:.:.:.:.:.:.:.:.:.:.:.:.:.:.:.:.:.:.:.:.:.:.. f G Y R K H P U P G G G r :.:.:.",
":.:.:.:.:.:.:.:.:.:.:.:.:.:.:.:.:.:.:.:.:.:.:.:.:.:.:.:.:.:.:.f G j w O.@.] c P U H G G G e :.:.",
":.:.:.:.:.:.:.:.:.:.:.:.:.:.:.:.:.:.:.:.:.:.:.:.:.:.:.:.:.:.6 G G H d l B V ..+.0 P G G G G 3 :.",
":.:.:.:.:.:.:.:.:.:.:.:.:.:.:.:.:.:.:.:.:.:.:.:.:.:.:.:.:.O G G G L U U U U U c #.a G G G G G :.",
":.:.:.:.:.:.:.:.:.:.:.:.:.:.:.:.:.:.:.:.:.:.:.:.:.:.:.:.:.f G 8 } | i U U U U U c ..j G G G G :.",
":.:.:.:.:.:.:.:.:.:.:.:.:.:.:.:.:.:.:.:.:.:.:.:.:.:.:.:.% H 8 ;.;.;.;.T U U U U U O.8 H G G G a ",
":.:.:.:.:.:.:.:.:.:.:.:.:.:.:.:.:.:.:.:.:.:.:.:.:.:.:.:.g k W ;.` ;.;.;.k I L U U p a j G G G f ",
":.:.:.:.:.:.:.:.:.:.:.:.:.:.:.:.:.:.:.:.:.:.:.:.:.:.:.: G G W ;.;.;.;.;.y -.;.| s U j G G G G j ",
":.:.:.:.:.:.:.:.:.:.:.:.:.:.:.:.:.:.:.:.:.:.:.:.:.:.:.G j J y ;.;.;.;.' ;.;.;.;.;.g j G G G G j ",
":.:.:.:.:.:.:.:.:.:.:.:.:.:.:.:.:.:.:.:.:.:.:.:.:.:.5 j P U f Z ;.;.| C ;.;._ ;.;.A G G G G G g ",
":.:.:.:.:.:.:.:.:.:.:.:.:.:.:.:.:.:.:.:.:.:.:.:.:.O G 5 K k 9 p K 5 U N ;.;.-.;.;.v G G G G G a ",
":.:.:.:.:.:.:.:.:.:.:.:.:.:.:.:.:.:.:.:.:.:.:.:.:.a 7 6 & ; g U p U L L  .;.;.;.-.a j G G G G 9 ",
":.:.:.:.:.:.:.:.:.:.:.:.:.:.:.:.:.:.:.:.:.:.:.:.* G 4 % & & ) H e p L U L W *.` 7 j G G G G G = ",
":.:.:.:.:.:.:.:.:.:.:.:.:.:.:.:.:.:.:.:.:.:.:.:.j G 7 & & & & { g U U U 0 L U f G G G G G G j :.",
":.:.:.:.:.:.:.:.:.:.:.:.:.:.:.:.:.:.:.:.:.:.:.2 G G h 3 & & & x %.( u n k I J G G G G G G G r :.",
":.:.:.:.:.:.:.:.:.:.:.:.:.:.:.:.:.:.:.:.:.:.. G G G U 0 ^ & & & @ @ & & & & f j G G G G G G = :.",
":.:.:.:.:.:.:.:.:.:.:.:.:.:.:.:.:.:.:.:.:.:.9 9 j j U U 7 ^ b & & < D # & & - e G G G G G G :.:.",
":.:.:.:.:.:.:.:.:.:.:.:.:.:.:.:.:.:.:.:.:.O f 9 G H U U L K m [ @ & $ F @ & * 7 G G G G G t :.:.",
":.:.:.:.:.:.:.:.:.:.:.:.:.:.:.:.:.:.:.:.:.f G g j H U U U U U q &.) @ F # & 9 a G G G G G * :.:.",
":.:.:.:.:.:.:.:.:.:.:.:.:.:.:.:.:.:.:.:.% G G G G P U U U U U U U M S 1 ; 0 4 G G G G G j :.:.:.",
":.:.:.:.:.:.:.:.:.:.:.:.:.:.:.:.:.:.:.:.f G G G G U U U U U U U U U U 4 4 f G G G G j G 3 :.:.:.",
":.:.:.:.:.:.:.:.:.:.:.:.:.:.:.:.:.:.:.* G G G G G U U U U U U U U U G G G G G G G G G G :.:.:.:.",
":.:.:.:.:.:.:.:.:.:.:.:.:.:.:.:.:.:.:.j G G G G U U U U U U U U U H G G G G G G G G G 7 :.:.:.:.",
":.:.:.:.:.:.:.:.:.:.:.:.:.:.:.:.:.:.> G G G G H U U U U U U U U U j G G G G G G G G G O :.:.:.:.",
":.:.:.:.:.:.:.:.:.:.:.:.:.:.:.:.:.o G G G G G P U U U U U U U U j l G G G G G G G G t :.:.:.:.:.",
":.:.:.:.:.:.:.:.:.:.:.:.:.:.:.:.:.t G G G G G U U U U U U U U H G G G j G G G G G G % :.:.:.:.:.",
":.:.:.:.:.:.:.:.:.:.:.:.:.:.:.:.- G G G G G J U U U U U U U P G G G G G G G G G G f :.:.:.:.:.:.",
":.:.:.:.:.:.:.:.:.:.:.:.:.:.:.:.j G G G G G U U U U U U U H G G G G G G G G G G G - :.:.:.:.:.:.",
":.:.:.:.:.:.:.:.:.:.:.:.:.:.:.0 G G G G G U U U U U U U H G G G G G G G G G G G g :.:.:.:.:.:.:.",
":.:.:.:.:.:.:.:.:.:.:.:.:.:.* G G G G G P U U U U U I G G G G G G G G G G G G G : :.:.:.:.:.:.:.",
":.:.:.:.:.:.:.:.:.:.:.:.:.o j 0 G G G H U U U U U U G G G G G G G G G G G G G j :.:.:.:.:.:.:.:.",
":.:.:.:.:.:.:.:.:.:.:.:.:.a G a G G G U U U U U U G G G G G G G G G G G G G G 4 :.:.:.:.:.:.:.:.",
":.:.:.:.:.:.:.:.:.:.:.:.4 G G G G G U U U U U U I G j G G G G G G G 0 e G G G :.:.:.:.:.:.:.:.:.",
":.:.:.:.:.:.:.:.:.:.:.* G G G G G I U U U U U U G G G G G G G G G j 9 f G G 6 :.:.:.:.:.:.:.:.:.",
":.:.:.:.:.:.:.:.:.:.O j G G G G G U U U U U U U G G G G G G G G G G G G G G :.:.:.:.:.:.:.:.:.:.",
":.:.:.:.:.:.:.:.:.:.g G G G G G I U U U U U U P G G G G G G G G G G G G G 3 :.:.:.:.:.:.:.:.:.:.",
":.:.:.:.:.:.:.:.:.f G G G G G G U U U U U U U G G G G G G G G G G G G G G :.:.:.:.:.:.:.:.:.:.:.",
":.:.:.:.:.:.:.:.t G G G G G G I U U U U U U P G G G G G G G G G G G G G : :.:.:.:.:.:.:.:.:.:.:.",
":.:.:.:.:.:.:.9 G G G G G G H U U U U U U U G G G G G G G G G G G G G f :.:.:.:.:.:.:.:.:.:.:.:.",
":.:.:.:.:.:.3 G G G G G G G U U U U U U U G G G G G G G G G G G G G G @ :.:.:.:.:.:.:.:.:.:.:.:.",
":.:.:.:.:.% G G G G G e r U U U U U U P G G G G G G G G G G G G G G 9 :.:.:.:.:.:.:.:.:.:.:.:.:.",
":.:.:.:.:.G G G G G G 9 U U U U U U P G G G G G G G G G G G G G G G :.:.:.:.:.:.:.:.:.:.:.:.:.:.",
":.:.:.:.r 0 0 G G G G U U U U U U I j G G G G G G G G G G G G G G - :.:.:.:.:.:.:.:.:.:.:.:.:.:.",
":.:.:.- G 9 a G G G I U U U U U U G G G G G G G j G G G G G G G a :.:.:.:.:.:.:.:.:.:.:.:.:.:.:.",
":.:.:.G G G G G G P U U U U U U H G G G G G G G G G G G G G G G o :.:.:.:.:.:.:.:.:.:.:.:.:.:.:.",
":.:.6 j G G G G P I U U U U U P G G G G G G G G G G G G G G G * :.:.:.:.:.:.:.:.:.:.:.:.:.:.:.:.",
":.:.G G G G G G U U U U U U P j G G G G G G G G G G G G G G 3 :.:.:.:.:.:.:.:.:.:.:.:.:.:.:.:.:.",
":.3 G G G G G I U U U U U P j j G G G G G G G G G G G G G 9 :.:.:.:.:.:.:.:.:.:.:.:.:.:.:.:.:.:.",
":.g G G G G H U U U U U P G G G G G G G G G G G G G G G a :.:.:.:.:.:.:.:.:.:.:.:.:.:.:.:.:.:.:.",
"o G G G G G I U U U U I G G G G G G G G G j G G G G G f :.:.:.:.:.:.:.:.:.:.:.:.:.:.:.:.:.:.:.:.",
"& G G G G G I U U U I G G G G G G G G G 9 9 G G G G f . :.:.:.:.:.:.:.:.:.:.:.:.:.:.:.:.:.:.:.:.",
"2 G G G G G P I U P G G G G G G G G G f 9 a G G G g X :.:.:.:.:.:.:.:.:.:.:.:.:.:.:.:.:.:.:.:.:.",
"4 G G G G G j j j j G G G G G G G G G G G G G G j . :.:.:.:.:.:.:.:.:.:.:.:.:.:.:.:.:.:.:.:.:.:.",
"4 G G G B f G G j G G G G G G G G G G G G G G j O :.:.:.:.:.:.:.:.:.:.:.:.:.:.:.:.:.:.:.:.:.:.:.",
"2 G G G G P j G G G G G G G G G G G G G G G j + :.:.:.:.:.:.:.:.:.:.:.:.:.:.:.:.:.:.:.:.:.:.:.:.",
"% G G G G G G G G G G G G G G G G G G G G j + :.:.:.:.:.:.:.:.:.:.:.:.:.:.:.:.:.:.:.:.:.:.:.:.:.",
":.j G G G G G G G G G G G G G G G G G G j O :.:.:.:.:.:.:.:.:.:.:.:.:.:.:.:.:.:.:.:.:.:.:.:.:.:.",
":.O j G G G G G G G G G G G G G G G G r :.:.:.:.:.:.:.:.:.:.:.:.:.:.:.:.:.:.:.:.:.:.:.:.:.:.:.:.",
":.:.o a G G G G G G G G G G G G G g % :.:.:.:.:.:.:.:.:.:.:.:.:.:.:.:.:.:.:.:.:.:.:.:.:.:.:.:.:.",
":.:.:.:.% r G j G G G G G j j 9 + :.:.:.:.:.:.:.:.:.:.:.:.:.:.:.:.:.:.:.:.:.:.:.:.:.:.:.:.:.:.:.",
":.:.:.:.:.:.:.+ * > 2 : % o :.:.:.:.:.:.:.:.:.:.:.:.:.:.:.:.:.:.:.:.:.:.:.:.:.:.:.:.:.:.:.:.:.:."
};
