/* XPM */
static char *result[] = {
/* columns rows colors chars-per-pixel */
"45 64 236 2 ",
"   c #249E0D",
".  c #27A20E",
"X  c #28A40D",
"o  c #2CAB0C",
"O  c #33AE09",
"+  c #2FB10C",
"@  c #33B40B",
"#  c #3AB40D",
"$  c #35BC0C",
"%  c #3BBB0B",
"&  c #27A211",
"*  c #2BA413",
"=  c #2CAA13",
"-  c #2EA818",
";  c #33AD1A",
":  c #37AE16",
">  c #2EB010",
",  c #31B512",
"<  c #3CB511",
"1  c #35BB12",
"2  c #39B919",
"3  c #3BB622",
"4  c #39A821",
"5  c #44BC1A",
"6  c #4BBC1B",
"7  c #45B917",
"8  c #50BF1A",
"9  c #46B90F",
"0  c #47B928",
"q  c #52BD29",
"w  c #58BA38",
"e  c #4FB535",
"r  c #3AC40C",
"t  c #3DCB0C",
"y  c #37C00C",
"u  c #3BC512",
"i  c #3EC717",
"p  c #41CD09",
"a  c #42D30B",
"s  c #48DA0B",
"d  c #4BC31C",
"f  c #47C818",
"g  c #56C41A",
"h  c #49D517",
"j  c #53DB1A",
"k  c #6CCF1A",
"l  c #4BE309",
"z  c #4EEA0A",
"x  c #51EE0B",
"c  c #53F20A",
"v  c #58E61A",
"b  c #5CFA18",
"n  c #4EE114",
"m  c #63F81C",
"M  c #46C22B",
"N  c #4AC42D",
"B  c #49CA22",
"V  c #54CB24",
"C  c #5BC329",
"Z  c #57C728",
"A  c #4BD526",
"S  c #5DD42B",
"D  c #58D927",
"F  c #4CC832",
"G  c #5BCC33",
"H  c #57C635",
"J  c #58D738",
"K  c #65CB29",
"L  c #63D52C",
"P  c #6BCE33",
"I  c #65C738",
"U  c #71CE3C",
"Y  c #64DB33",
"T  c #6BDC3C",
"R  c #68D737",
"E  c #77D63A",
"W  c #7AD623",
"Q  c #5CE322",
"!  c #5CE72A",
"~  c #5BE934",
"^  c #5EF637",
"/  c #57E925",
"(  c #63E827",
")  c #65F523",
"_  c #64F42B",
"`  c #67FA29",
"'  c #6BED3B",
"]  c #69E637",
"[  c #71E63E",
"{  c #6DF63D",
"}  c #68F938",
"|  c #73F639",
" . c #5EBC48",
".. c #65BF48",
"X. c #5ED943",
"o. c #5BCA44",
"O. c #68C545",
"+. c #75CC47",
"@. c #62DC45",
"#. c #6BD844",
"$. c #7CD543",
"%. c #73DC44",
"&. c #78D849",
"*. c #77CC54",
"=. c #7AD655",
"-. c #6BE445",
";. c #6CEB43",
":. c #68E647",
">. c #76E849",
",. c #6CF844",
"<. c #74FA45",
"1. c #75FD4A",
"2. c #7CFD49",
"3. c #77F648",
"4. c #7BE354",
"5. c #7DEB5C",
"6. c #7BF754",
"7. c #7CC767",
"8. c #7FD16A",
"9. c #5EE440",
"0. c #85DD28",
"q. c #85DC3A",
"w. c #99E92B",
"e. c #91E432",
"r. c #ADF52F",
"t. c #A4F02C",
"y. c #A4EE3A",
"u. c #AEF532",
"i. c #AFF53D",
"p. c #B1F63B",
"a. c #B0F536",
"s. c #A1EE2C",
"d. c #87DB49",
"f. c #86D957",
"g. c #93DD5A",
"h. c #8BE244",
"j. c #95E649",
"k. c #82FC4D",
"l. c #86F74C",
"z. c #84E35C",
"x. c #86E958",
"c. c #9BE45C",
"v. c #97E556",
"b. c #83FE55",
"n. c #8AFE53",
"m. c #87FA5A",
"M. c #93F55E",
"N. c #A8EC4A",
"B. c #B4F644",
"V. c #B9F64E",
"C. c #B6F649",
"Z. c #A6EB5C",
"A. c #AAF45A",
"S. c #BBF554",
"D. c #BEF55C",
"F. c #BAF659",
"G. c #AEF643",
"H. c #8DDD6C",
"J. c #89D766",
"K. c #93DC64",
"L. c #98DC69",
"P. c #8CD874",
"I. c #96D879",
"U. c #86C871",
"Y. c #A5DC7C",
"T. c #87E664",
"R. c #99E568",
"E. c #8DFC64",
"W. c #8AF565",
"Q. c #94FA6C",
"!. c #96F968",
"~. c #97E677",
"^. c #97F774",
"/. c #A8E867",
"(. c #B5F667",
"). c #ACE47C",
"_. c #A7E677",
"`. c #B4EA7A",
"'. c #A8F777",
"]. c #B6F478",
"[. c #ABF363",
"{. c #C4F56C",
"}. c #C1F867",
"|. c #CAF47C",
" X c #C7F676",
".X c #9DD884",
"XX c #A4DC87",
"oX c #AEDA98",
"OX c #B2DB98",
"+X c #9BE781",
"@X c #ADE482",
"#X c #A8E589",
"$X c #B5EA89",
"%X c #B6E887",
"&X c #A7F585",
"*X c #B9F586",
"=X c #A9E692",
"-X c #BAE798",
";X c #B7F997",
":X c #ADFB92",
">X c #BADCA8",
",X c #BDE5A7",
"<X c #CCF483",
"1X c #C8F68A",
"2X c #D1F38B",
"3X c #C4EA99",
"4X c #C7F497",
"5X c #D4F494",
"6X c #D5F79B",
"7X c #C6ED82",
"8X c #CBECA4",
"9X c #C7E7AC",
"0X c #D6EEAC",
"qX c #CAF5A6",
"wX c #D2F4A5",
"eX c #DCF3AD",
"rX c #D8F6A6",
"tX c #CAE9B6",
"yX c #D5EDB8",
"uX c #DAF5B8",
"iX c #E2F2B6",
"pX c #D8EAC6",
"aX c #D8F2C3",
"sX c #E6F2C3",
"dX c #E9F2CC",
"fX c #E5F5C8",
"gX c #E7EDD6",
"hX c #ECF1D2",
"jX c #E8F3D7",
"kX c #F1F1DE",
"lX c #E1EECD",
"zX c #F6EFEB",
"xX c #F2F1E4",
"cX c #F8F0ED",
"vX c #F9EFF2",
"bX c None",
/* pixels */
"bXbXbXbXbXbXbXbXbXbXbXbXbXbXbXbXbXbXbXbXu.p.5X{.u.r.bXbXbXbXbXbXbXbXbXbXbXbXbXbXbXbXbXbXbX",
"bXbXbXbXbXbXbXbXbXbXbXbXbXbXbXr.u.{. XrXeXiXsXrXhXhX2XbXbXbXbXbXbXbXbXbXbXbXbXbXbXbXbXbXbX",
"bXbXbXbXbXbXbXbXbXbXbXbXD.}.D.C.u.u.C. X2X1XwXeXhXuXsXsX5Xr.r.r.bXbXbXbXbXbXbXbXbXbXbXbXbX",
"bXbXbXbXbXbXbXbXbXbXu. X|.eXrX{.6X4X1X3X(././.h.d.).gXiXdXwXy.r.r.r.bXbXbXbXbXbXbXbXbXbXbX",
"bXbXbXbXbXbXbXbXbXu.5XcXxXeX`.7X*Xj.P W j.h./.R.d.8 E ,XpX0XfX4XS.u.r.r.bXbXbXbXbXbXbXbXbX",
"bXbXbXbXbXbXbXbXr.5XvXxXdX9X_.R.d.R.K 8 =.f.9 $.E k q.K Y.lXY.yXuX|.p.u.u.bXbXbXbXbXbXbXbX",
"bXbXbXbXbXbXbXbX5XdXcXgXyX%Xh.'.*X~._.%X4X4X_.%.P E c.K d.Y.gX8XyXaXrX{. XF.bXbXbXbXbXbXbX",
"bXbXbXbXbXbXbXbX<XvXgX9X%Xz.Z.].L.+.G T m.M.'.*XwX_.6 E q.8 /.gX`.).aXfX{.r.u.bXbXbXbXbXbX",
"bXbXbXbXbXbXbXbXeXcXyX8X)./.].T Z H l.2.2.2.2.;.z.T.qXR.7 d.9 U lX[.K.uXfXa.u.r.bXbXbXbXbX",
"bXbXbXbXbXbXbXbX7XuXuXd.h.$.q # V <.1.2.2.2.2.2.W.5.=.!.'.d.E K C yXZ.8XiXeXr.r.bXbXbXbXbX",
"bXbXbXbXbXbXbX}.wXdXL.d.P 8 7 Y <.<.{ } ~ D -.J.P.~.,.B T '.).R h.I tX4X-XeX{.r.r.bXbXbXbX",
"bXbXbXbXbXbXbXa.iXsX%XK.I K %.Y V q Z G Z d O.J.H.I.] } h L !.).2.v.Y.*X$X4X6Xa.r.bXbXbXbX",
"bXbXbXbXbXV.}.}.uX).v.6 6 ' 2.E.E.J h 7 *.=X$X%.Q b.>.' <.Y L !.Q.2.d.9X4X-X].|.B.r.bXbXbX",
"bXbXbXbXbXB.u.rX7X/.K 9 L ^.6.^ <.L g P.P.Y Q | ` b R.v ( 3.] d '.b.!.L.4X-XuX<XV.r.bXbXbX",
"bXbXbXbXa.D.<X5X/.h.8 f.!.<.,.2.] V K.&.l.>.x.| b ` #Xr v v D g V T.S c.9XrX8X7X{. Xa.bXbX",
"bXbXbXbXr.r.5X0Xj.f.C !.&XQ.;Xk.L Y Y Y Y L ( ' v b I.O.9 D Q j V -.-.R ).4X%XfXiX6Xu.bXbX",
"bXbXbXbXC.p.}.|.0.U +.qX=X;X'.[ L Y ( l.@X-X&X' | b ' *.< # % ( ] [ *X;.&.-XqX0XsXhXS.r.bX",
"bXbXbXbX}.V.5X/.g K 8XXXqX;XS S ] :X,XP.H 7 < I H.Q.^ @ q @ # V S Y E.b.=.$XrXyXhXhX|.r.bX",
"bXbXbXbX6X6X4Xd.8 U ,X;X&XZ L | 9XtX'.W.,.,.3.:.F , ^.A O q % C I L >.!.6.~.%XyXxXxXiXu.bX",
"bXbXbXbX6X6X9XW 9 K.-X$XR %.l.9X^._ } ' ;.3.{ v 1.@.i 6.O 0 % 7 5 d Y ^.b.f.&.fXlXkXiXa.bX",
"bXbXbXbXB.t.c.k g %X-Xg.G l.=Xx.` F F M 3 ; 0 X.' _ 6.A 6 O O p O 9 5 Q.n.W.C jXpXxXsXB.bX",
"bXbXbXbXu.w.`.0.d.8XR.d M.~.W.} M M = , r t t + ; ;._ >.7 O O r @ w O T M.^.U lXfXxXdXu.bX",
"bXbXbXbX{.(.e.d.c.L.=.%.z.&X} M ; = y u 2 ; 1 t t   ' | J # O O p I ..6 Q.E.%.pXhXxXr.r.bX",
"bXbXbXeXp.Z.w.d.%XR.V [ ~.| N ; X u 3 J X.J F M u t 1 / 6.H O O s j w 6 :Xn.5.tXwXwXp.r.bX",
"bXbXbXbXu.y.s./.XX).d 4.^.4.0 . , N X.3 .       = u $ ! _ 5.O o s s 9 ..-Xb.W.9X_.wXrXu.bX",
"bXbXbXa.D.t.N.Z.K.C R ^.2.N   1 3 9.- * y $ .   . = t r b 6.r $ a z # *.*.b.W.>Xh.1XC.u.bX",
"bXbXbXr.eX{.(.@X_.f %.Q.~ 4 + . X.* y l z z l >   . 1 > ) ,.J a s l 9 ..< 2.W.XXd.rX Xr.bX",
"bXbXbXr.u.u.g.Y.T.g 6.` N   + 0 N y c r X X y z & . = u n ) { a j p p q < 1.E.#.v.qXB.r.bX",
"bXbXbXr.r.D.g.K.L L !._ 0 = * X.o l o         y a . = t t b ,.D f % p 7 < 1.E.#.f.(.r.r.bX",
"bXbXbXr.u.kX3XR.V Y !.-.- y ; J r l           . l   & a t c ,.! O O a : < 1.E.4.J.(.r.r.bX",
"bXbXbXr.r.D./.R.g { !.J   o ; 2 s @ . e         l . & t r z } ' o O j 7 # 1.E.-.$.(.u.r.bX",
"bXbXbXV.5Xw.-XK.2 2.| N - * N $ c X 0 4         l X & t t l _ 4.X 9 a 6 ..3.m.&.L (.}.u.bX",
"bXbXbXu.2Xw.).f.5 2._ N = ; J t z .  .- . . y t s - = t a a s 4.O I r C w 3.!.~.U *X6XS.bX",
"bXbXbXbXeXN.%X&.f 2.| 3 + ; X.t l .   e & & , t y & , 1 a 1 a D X 7 9 *.w b.3.~.L.[.p.{.bX",
"bXbXbXbXD.N.@X%.f 2._ 0 + 2 X.i s o @ B & .   o   & t u > , a p O O p *.w E.] #XXXA.r.r.bX",
"bXbXbXbXr.Z.%XT I 2.) 0 > i X.h l r #.y .     & X u 1 s & = a a X O p q O.E.-.$XU A.V.r.bX",
"bXbXbXbXr.3X%X%.*.1.m N + i F A z t | h + y y Z h B h , & . a a @ $ 6 : =.E.J R.U A.t.r.bX",
"bXbXbXbXu.0X3X&.P.1.m G X 3 4 ~ c a v x.a t + + y s y = . . a p V p P.O W.E.#.d.P (.u.r.bX",
"bXbXbXbXbXeX-XI =X<.m J & 2 = :.c s c | f H.R a a o.o.    . p h p a O.4 E.;.T.P K 0X{.u.bX",
"bXbXbXbXbXjX`.B qX,.) ] & u y :.j c c s f U.    *           t $ a f.0 #.6.T ).P I y.S.u.bX",
"bXbXbXbXbXdX3XV :X;.| ] M $ 2 M ;.x c l t U.;               t $ s I.O ~.>.R $Xf.g 0.r.r.bX",
"bXbXbXbXbXdX8XI W.4.2.m #.= M y :.J ~ l . P.o.-         & @ X s >.* H 6.I.K./.Z U 0.r.r.bX",
"bXbXbXbXbXsX/.f.} -Xk.` #.G t 1 3 >.9.,.F =X,X;       . X o @ h =., ^.;.OX%Xh.I g 0.r.r.bX",
"bXbXbXbXbXiXq.c.A jX2.( S F i N t F 6.,.5.=XT.P.*   & & & = s T.u J.1.T ..g.E 8 g /.V. XbX",
"bXbXbXbXbXrXW j.< fX;.3.{ 8.+X=.2 y F W.&X=X5.X.-  . .8.N r %.#.O.b.:.F L.v.g I sX0XsXdXbX",
"bXbXbXbXbX2X0.j.0 :X&Xb.Q @.7.#XP.2 u 2 9.+XF - , @ >   : A H.] m.;.Y w c.v...pX9XgXhXhXbX",
"bXbXbXbXbXbXs.q.v.,.jX2.;.| X.; 5.#XM A &   & & .   * ; f H.T.2.~ >.w R R.tX>XoX>XzXhXiXbX",
"bXbXbXbXbXbXi.%X%XJ aX&Xk.j ] J * ] W.~.J A > & . o r a R.&X<.#.T.H 7 R.8XpXOXJ.7X0XhXbXbX",
"bXbXbXbXbXbXi.0.L.R.3.pXb.k.v ! J & F ( x.+XI.#.T >.~.:XW.4.#.T.Z 0 =.).OXC 9 j./.p.rXbXbX",
"bXbXbXbXbXbXB.w.R.*XT.tX=Xn.} ( / J 3 2 J >.6.6.6.3.;.;.^.:X5.G 5 J.d.J.f.I q 4XZ.D.r.bXbX",
"bXbXbXbXbXbXbXr././.XX^.jX#Xn.` ! j J J J A F =.I.=X=X:X^.J A #.I Z P =.U q I.%XN.V.bXbXbX",
"bXbXbXbXbXbXbXr.Z.U L.z.~.yX^.n.` V b J F F J 9.9.:.~ v v L 0 7 f k.,.W ....yXe.a.r.bXbXbX",
"bXbXbXbXbXbXbXbXw.).K XX^ 9X,X~.n.{ h Q | ~ A O + f j v L #.B f 3.~ ' _.O.@Xh.S.<Xu.bXbXbX",
"bXbXbXbXbXbXbXbXy.%X9XK.H.Q.,X,X~.k.m.^ 5 h Q ) m m ) _ <.~ D D ~ ;.OXI.K.Z.j.S.}.bXbXbXbX",
"bXbXbXbXbXbXbXbXa.`.`.R.,X5./ .XpXP.4.m.m.} 3.A B J ;.m.| D A J z.>X9Xf.j._.}.D.p.bXbXbXbX",
"bXbXbXbXbXbXbXbXbXV.3X).g.$X8.^ J.jX.XR.f.;.5.^.^.T.' ~ ;.Y #.XXaX8X*.K '.wXB.u.r.bXbXbXbX",
"bXbXbXbXbXbXbXbXbXr.<X%X%Xg.K.XX~ ] tXpX.X~.5.T.z.z.W.5.=.P.9XtXJ.K S d.3X1Xu.u.bXbXbXbXbX",
"bXbXbXbXbXbXbXbXbXr.}.5X-X@XL.$.f.&.A G P.pXyXXXXXI.I.oXpXpX*.g P f.R.fX Xi.r.r.bXbXbXbXbX",
"bXbXbXbXbXbXbXbXbXbXr.|.0X`.%XY.$.U K.4.A .X>XU..XoX9X-Xq C P C 8 P `.<X|.u.r.bXbXbXbXbXbX",
"bXbXbXbXbXbXbXbXbXbXbXr.5X5X3X8X`._.f.P $.R._.OX+.C C f.U P E d.4X<Xi.{.r.a.bXbXbXbXbXbXbX",
"bXbXbXbXbXbXbXbXbXbXbXbXbXB.{.|.eX0X/.].j.q.h.R.`.`.4X].M.A.].*XG.p.a.F.S.uXbXbXbXbXbXbXbX",
"bXbXbXbXbXbXbXbXbXbXbXbXbXbXu.2XV.rXrXiXwXZ.`.yX8X3XuX].y.y.(.rX XB. XV.bXbXbXbXbXbXbXbXbX",
"bXbXbXbXbXbXbXbXbXbXbXbXbXbXbXbXbXbXV.V.iX5XiXsXsXiXrX6X X}.a.C.u.r.bXbXbXbXbXbXbXbXbXbXbX",
"bXbXbXbXbXbXbXbXbXbXbXbXbXbXbXbXbXbXbXbXbXbXbXiXdXsXbXbXbXbXbXbXfXbXbXbXbXbXbXbXbXbXbXbXbX"
};
