/* XPM */
static char *result[] = {
/* columns rows colors chars-per-pixel */
"46 64 184 2 ",
"   c #010101",
".  c #0C0C05",
"X  c #0B0C0B",
"o  c #121206",
"O  c #13130B",
"+  c #1B1907",
"@  c #0D0F12",
"#  c #0F1214",
"$  c #131413",
"%  c #1A1A14",
"&  c #1C1C1B",
"*  c #141919",
"=  c #201F1E",
"-  c #1A251A",
";  c #1E291E",
":  c #22221D",
">  c #2B2414",
",  c #3C301A",
"<  c #1F2629",
"1  c #1D2522",
"2  c #232323",
"3  c #2C2C24",
"4  c #20272A",
"5  c #2B2B2B",
"6  c #24292A",
"7  c #302E26",
"8  c #223022",
"9  c #3C3522",
"0  c #3E3924",
"q  c #32322E",
"w  c #3A392E",
"e  c #262E32",
"r  c #242C39",
"t  c #2A3234",
"y  c #2E383A",
"u  c #333333",
"i  c #3C3B34",
"p  c #343A3A",
"a  c #3C3C3C",
"s  c #30343B",
"d  c #42361E",
"f  c #453921",
"g  c #4B3D21",
"h  c #384138",
"j  c #524811",
"k  c #60430F",
"l  c #4D4222",
"z  c #574728",
"x  c #5E4D2B",
"c  c #434335",
"v  c #454439",
"b  c #4C4C3C",
"n  c #494637",
"m  c #65532F",
"M  c #665430",
"N  c #242B40",
"B  c #323947",
"V  c #373A63",
"C  c #364346",
"Z  c #374158",
"A  c #3F5151",
"S  c #3F4768",
"D  c #3E4F70",
"F  c #424242",
"G  c #434C42",
"H  c #4A4C4B",
"J  c #484847",
"K  c #475147",
"L  c #535343",
"P  c #52524C",
"I  c #5A5A4A",
"U  c #5A5A44",
"Y  c #425454",
"T  c #47565C",
"R  c #4B5459",
"E  c #555554",
"W  c #5B5C5B",
"Q  c #5F5B55",
"!  c #645D55",
"~  c #556154",
"^  c #60604F",
"/  c #6F6F48",
"(  c #646452",
")  c #63635D",
"_  c #6B6B51",
"`  c #7B7B5C",
"'  c #7E7E53",
"]  c #4C5A63",
"[  c #405173",
"{  c #55646A",
"}  c #5C6D77",
"|  c #6A6661",
" . c #6D6B64",
".. c #6C6C6B",
"X. c #646464",
"o. c #746F6A",
"O. c #766E66",
"+. c #7C7C65",
"@. c #7A766D",
"#. c #62747C",
"$. c #737474",
"%. c #7C7C7B",
"&. c #787A75",
"*. c #687768",
"=. c #81796F",
"-. c #857D72",
";. c #748574",
":. c #BB8515",
">. c #CA9A17",
",. c #F4BA1C",
"<. c #938A53",
"1. c #898966",
"2. c #8E8E6C",
"3. c #8E8479",
"4. c #8C8C7D",
"5. c #898377",
"6. c #93887C",
"7. c #999A79",
"8. c #FFDE78",
"9. c #FBDA76",
"0. c #E6C96C",
"q. c #515B8A",
"w. c #677A83",
"e. c #5C5CB9",
"r. c #5C62A8",
"t. c #6970A4",
"y. c #636ABE",
"u. c #6666CD",
"i. c #656BC7",
"p. c #6E8089",
"a. c #778389",
"s. c #768C97",
"d. c #7C939E",
"f. c #7E96A2",
"g. c #848484",
"h. c #8C8B87",
"j. c #9A8E83",
"k. c #979783",
"l. c #939393",
"z. c #9D9D9C",
"x. c #A4998B",
"c. c #A1A181",
"v. c #A6A688",
"b. c #BAAC9E",
"n. c #B2A698",
"m. c #8098A4",
"M. c #839BA7",
"N. c #859FB0",
"B. c #86A0AD",
"V. c #8BA6B3",
"C. c #92ADBB",
"Z. c #95B1BE",
"A. c #A0A0A0",
"S. c #ADADAD",
"D. c #A6A8A8",
"F. c #B4B4B4",
"G. c #BDBDBD",
"H. c #C7B8A9",
"J. c #CCBDAC",
"K. c #C4B5A6",
"L. c #B5D7B5",
"P. c #BBDDBB",
"I. c #B7D9B7",
"U. c #CFC0B0",
"Y. c #D4C4B3",
"T. c #DECDBC",
"R. c #8387C3",
"E. c #98B5C3",
"W. c #9CB9C8",
"Q. c #AAC9D9",
"!. c #B4D6E6",
"~. c #BCDEEF",
"^. c #B7D9E9",
"/. c #C4C4C4",
"(. c #CCCCCC",
"). c #D4D4D4",
"_. c #DDDDDD",
"`. c #D6D5C6",
"'. c #EEEEDD",
"]. c #E4E4E4",
"[. c #ECECEC",
"{. c #F4F4F4",
"}. c #FEFEFE",
"|. c None",
/* pixels */
"|.|.|.|.|.|.|.|.|.|.|.|.|.|.|.|.|.|.|.|.|.|.|.|.|.|.|.|.|.|.|.|.|.|.|.|.  |.|.|.|.|.|.|.|.|.",
"|.|.|.|.|.|.|.|.|.|.|.|.|.|.|.|.|.|.|.|.|.|.|.|.|.|.|.|.  |.|.|.|.|.|.# s.|.|.|.|.|.|.|.|.|.",
"|.|.|.|.|.|.|.|.|.|.|.|.|.|.|.|.|.|.|.|.|.|.|.|.|.|.|.|.f.|.|.|.|.|.4 ~.C.|.|.|.|.|.|.|.|.|.",
"|.|.|.|.|.|.|.|.|.|.|.|.|.|.|.|.|.|.|.|.|.|.|.|.|.|.|.  ~.6 |.|.|.* ~.~.f.|.|.|.|.|.|.|.|.|.",
"|.|.|.|.|.|.|.|.|.|.|.|.|.|.|.|.|.|.|.|.|.|.|.|.|.|.|.t ~.!.  |.* ~.~.~.#.|.|.|.|.|.|.|.|.|.",
"|.|.|.|.|.|.|.|.|.|.|.|.|.|.|.|.|.|.|.|.|.|.|.|.|.|.|.] ~.~.C.* ~.~.~.~.T |.|.|.|.|.|.|.|.|.",
"|.|.|.|.|.|.|.|.|.|.|.|.|.|.|.|.|.|.|.|.|.|.|.|.|.|.|.T ~.~.~.~.~.~.~.~.] |.|.|.      |.|.|.",
"|.|.|.|.|.|.|.|.|.|.|.|.|.|.|.|.|.|.|.|.|.|.|.|.m.{ < r ~.!.m.m.Q.~.~.~.B.s.E.^.~.f.  |.|.|.",
"|.|.|.|.|.|.|.|.|.|.|.|.|.|.|.|.|.|.|.|.|.|.|.|.e ~.~.~.X.Y.T.T.T.b.#.~.~.~.~.~.~.  |.|.|.|.",
"|.|.|.|.|.|.|.|.|.|.|.|.|.|.|.|.|.|.|.|.|.|.|.|.  ~.~.) T.T.T.T.T.T.T.) ~.~.~.~.C |.|.|.|.|.",
"|.|.|.|.|.|.|.|.|.|.|.|.|.|.|.|.|.|.|.|.|.|.|.|.|.#.d.T.T.T.T.T.T.T.T.T.m.~.~.!.  |.|.|.|.|.",
"|.|.|.|.|.|.|.|.|.|.|.|.|.|.|.|.|.|.|.|.|.|.|.|.|.  @.T.T.T.T.`.T.T.T.T. .~.~.#.|.|.|.|.|.|.",
"|.|.|.|.|.|.|.|.|.|.|.|.|.|.|.|.|.|.|.|.|.|.|.* w.w.C.C.V.M.m.p.w.W T.T.H.~.~.~.C.X |.|.|.|.",
"|.|.|.|.|.|.|.|.|.|.|.|.|.|.|.|.|.|.|.|.|.|.|.  C.g.D.g.p W $.$.w.$.T.T.T.!.~.~.~.~.W.<   |.",
"|.|.|.|.|.|.|.|.|.|.|.|.|.|.|.|.|.|.|.|.|.|.|.|.. }.}.}.).o.}.}.}.}.=.T.T.Q.~.~.~.~.~.e |.|.",
"|.|.|.|.|.|.|.|.|.|.|.|.|.|.|.|.|.|.|.|.|.|.|.|.X }.}.H {.g.}.}.(./.| T.T.W.~.~.~.{   |.|.|.",
"|.  +.O |.|.|.|.|.|.|.|.|.|.|.|.|.|.|.|.|.|.|.|.  }.}.}.%.| }.}.}.}.j.T.T.C.~.E.  |.|.|.|.|.",
"|.n 2.7.I   |.|.|.|.|.|.|.|.|.|.|.|.|.|.|.|.|.|.|.X  . .6.T.) /.J.O.T.T.T.E.~.~.s.  |.|.|.|.",
". 1.1.1.2.+.|.|.|.|.|.|.|.|.|.|.|.|.|.|.|.|.|.|.  B.x.H.T.Y.T.T.`.j.x.T.H.{ ~.~.~.~.]   |.|.",
"|.3 1.1.1.+.% |.|.|.|.|.|.|.|.|.|.|.|.|.|.|.|.|.|.  T.b.T.3.T.Y.J.`.T.T.T.T.) ~.~.p   |.|.|.",
"|.|.  ` w 1.` ^   |.|.|.|.|.|.|.|.|.|.|.|.|.|.|.|.|.Y.T.O.T.T.T.T.T.T.T.T.T.j.E.  |.|.|.|.|.",
"|.|.|.    b U b c.  |.|.|.|.|.|.|.|.|.|.|.|.|.|.|.  3.T.T.T.T.T.T.j.T.T.K.6.Z.4 |.|.|.|.|.|.",
"|.|.|.|.|.|.% 1.1.c.3 |.|.|.|.|.|.|.|.|.|.|.|.|.|.= -.n.H.Y.J.b.-.6.! T.b.~.~.^.X |.|.|.|.|.",
"|.|.|.|.|.|.|.  ` 1.2.+.  |.|.|.|.|.|.|.|.|.|.|.|.  i Y.T.T.T.T.n.! K.T.{ p.    |.|.|.|.|.|.",
"|.|.|.|.|.|.|.|.  b 1.1.v.. |.|.|.|.|.|.|.|.|.|.|.|.|.6.T.T.T.T.T.T.T.Y.Z.Q.  |.|.|.|.|.|.|.",
"|.|.|.|.|.|.|.|.|.|.% 1.1.7.c       |.|.|.|.|.|.|.|.|.  T.T.T.T.T.T.T.X |.|.|.|.|.|.|.|.|.|.",
"|.|.|.|.|.|.|.|.|.|.|.  c _ u 2 f *   |.|.|.|.|.|.|.|.|.X J.T.T.T.x.= |.|.|.|.|.|.|.|.|.|.|.",
"|.|.|.|.|.|.|.|.|.|.|.o ! i 6 5 B & u   |.|.|.|.|.|.|.    /   * 2 u C   =.    |.|.|.|.|.|.|.",
"|.|.|.|.|.|.|.|.|.|.|.. . F F a e u j k   |.|.|.|.|.. c q a & Y Y A 1 5 w t 1.  |.|.|.|.|.|.",
"|.|.|.|.|.|.|.|.|.|.|.|.  F F a f q I ( ( + |.|.|.|.  & E g.R A Y Y H &.}.Y.G q 6 |.|.|.|.|.",
"|.|.|.|.|.|.|.|.|.|.|.|.|.a F F 4 2 % ( c ,.:.|.|.|.. $ u S.F Y Y Y ).{.{.}.}.}.}.J |.|.|.|.",
"|.|.|.|.|.|.|.|.|.|.|.|.|.& F F B ( n o L b >.f     q ( i ].H Y Y y }.}.&.}.}.}.}.{.  |.|.|.",
"|.|.|.|.|.|.|.|.|.|.|.|.|.X F F F . I ^ O 7 ( ( v ! &.5 7 ^ 4 T Y G.}.}.).}.}.}.}.}.  |.|.|.",
"|.|.|.|.|.|.|.|.|.|.|.|.|.  F F F   o w ( : O I p 3 I g.2 2 Q t s }.}.$.}.}.g.}.) `.. |.|.|.",
"|.|.|.|.|.|.|.|.|.|.|.|.|.|.a F F $   & $ _ % O v F a c - 3 q f L G.}.].[.}.}.S.%.'.q |.|.|.",
"|.|.|.|.|.|.|.|.|.|.|.|.|.|.3 ) F a   o B X   . X F F F 2 v S.q 2 ( P _.}.}.}.6 [.'.)   |.|.",
"|.|.|.|.|.|.|.|.|.|.|.|.|.|.X @.F F   . F $ |.|.  + u F 5 = I z.f $ L h }.}.}.  }.o.* X |.|.",
"|.|.|.|.|.|.|.|.|.|.|.|.|.|.  E F F 5   o u .   F /.. % 2 N.5 v < 5 : L }.}.}.  ].}...a |.|.",
"|.|.|.|.|.|.|.|.|.|.|.|.|.|.  F P F F     o . a a F u 2 F 2 ] F 4 ( ( c }.}.{.  g.}.}./.|.|.",
"|.|.|.|.|.|.|.|.|.|.|.|.|.|.|.5 @.F F $ |.|.  . a a X a F F F X . O % ..}.}.}.|.2 }.}.}.  |.",
"|.|.|.|.|.|.|.|.|.|.|.|.|.|.|.$ 4.F F a   |.|.. o = F 2 & 2 X o y.u.r.= {.}.}.|.  }.}.}.. |.",
"|.|.|.|.|.|.|.|.|.|.|.|.|.|.|.  | F F F   |.|.w.[.a F F F F X Z u.i.u.u L /.{.|.|.[.}.}.F |.",
"|.|.|.|.|.|.|.|.|.|.|.|.|.|.|.  J | F F 5 |.|.[.g.a F F F F $ V e.B u.Z I 5 E   |.l.}.}.A.|.",
"|.|.|.|.|.|.|.|.|.|.|.|.|.|.|.|.u k.F F F     }.J F F F F F F @.5.! u % 3 6 q *   2 }.}.[.|.",
"|.|.|.|.|.|.|.|.|.|.|.|.|.|.|.|.% k.h.F F O 5 }.u F F F F F F F F F H O.4.h. .i $   }.}.}.  ",
"|.|.|.|.|.|.|.|.|.|.|.|.|.|.|.|.   . .a u ..z.}.[.& a F F 5 a F F F F F F v F E H }.{.}.}.  ",
"|.|.|.|.|.|.|.|.|.|.|.|.|.|.|.|.    /.}.}.}./.}. .. : c 7 }.}.l.5 F F F F F F F f }.}.}.}.$ ",
"|.|.|.|.|.|.|.|.|.|.|.|.|.|.|.|.|.|.= }.}.}.].}.}.6   $ S.F _.}.}.u & u F F F F s }.}.}.}.a ",
"|.|.|.|.|.|.|.|.|.|.|.|.|.|.|.|.|.|.|.(.}.}.}.}.}.  |.W _.{.}.}.}.J F _.G.$ B f S.}.}.}.].  ",
"|.|.|.|.|.|.|.|.|.|.|.|.|.|.|.|.|.|.|.X }.}.}.}.G.|.|.$._.g.}.}.}.[.B a }./.% w : G * $   |.",
"|.|.|.|.|.|.|.|.|.|.|.|.|.|.|.|.|.|.|.|...}.}.).  |.|.g._.X.[.}.}.}.5 a }.}.X . X ~ |.|.|.|.",
"|.|.|.|.|.|.|.|.|.|.|.|.|.|.|.|.|.|.|.|.|.    |.|.|.|.l._.}.}.}.}.}.G.F ..}.G *.;.  |.|.|.|.",
"|.|.|.|.|.|.|.|.|.|.|.|.|.|.|.|.|.|.|.|.|.|.|.|.|.|.|.z.].B ].}.}.}.}.q u }./.|.  |.|.|.|.|.",
"|.|.|.|.|.|.|.|.|.|.|.|.|.|.|.|.|.|.|.|.|.|.|.|.|.|.|.A.[.[.[.-.h.}.}.z.F S.F.|.|.|.|.|.|.|.",
"|.|.|.|.|.|.|.|.|.|.|.|.|.|.|.|.|.|.|.|.|.|.|.|.|.|.|.a v a 0.8.8.3 p u u 5 6   |.|.|.|.|.|.",
"|.|.|.|.|.|.|.|.|.|.|.|.|.|.|.|.|.|.|.|.|.|.|.|.|.|.|.a F a 9.8.8.7 F F F F F   |.|.|.|.|.|.",
"|.|.|.|.|.|.|.|.|.|.|.|.|.|.|.|.|.|.|.|.|.|.|.|.|.|.|.l.G.m d <.l z z z w ).h.|.|.|.|.|.|.|.",
"|.|.|.|.|.|.|.|.|.|.|.|.|.|.|.|.|.|.|.|.|.|.|.|.|.|.|.F.(.M M M m m M M g $.E |.|.|.|.|.|.|.",
"|.|.|.|.|.|.|.|.|.|.|.|.|.|.|.|.|.|.|.|.|.|.|.|.|.|.|.(.G.m M M M M M M > q.D #   #   |.|.|.",
"|.|.|.|.|.|.|.|.|.|.|.|.|.|.|.|.|.|.|.|.|.|.|.|.|.|.|.'.z.m M M m m m M d R.t.r r Z @ |.|.|.",
"|.|.|.|.|.|.|.|.|.|.|.|.|.|.|.|.|.|.|.|.|.|.|.|.|.|.|.{.-.m m d L.L., m g N B 1 D D   |.|.|.",
"|.|.|.|.|.|.|.|.|.|.|.|.|.|.|.|.|.|.|.|.|.|.|.|.|.|.  }.^ m M f P.P.h m f F H 8     |.|.|.|.",
"|.|.|.|.|.|.|.|.|.|.|.|.|.|.|.|.|.|.|.|.|.|.|.|.|.|.  }.n m M , P.P.% > O K h & - |.|.|.|.|.",
"|.|.|.|.|.|.|.|.|.|.|.|.|.|.|.|.|.|.|.|.|.|.|.|.|.|.  }.h M M , P.L.; ; O K 5 h - |.|.|.|.|."
};
