/* XPM */
static char *result[] = {
/* columns rows colors chars-per-pixel */
"42 42 124 2 ",
"   c #A35250",
".  c #B45D5F",
"X  c #B9595C",
"o  c #BC5E64",
"O  c #B26263",
"+  c #BF6366",
"@  c #BC6769",
"#  c #B36C69",
"$  c #BA696A",
"%  c #AF7A6F",
"&  c #B6716D",
"*  c #B57D74",
"=  c #B97C74",
"-  c #BD7D79",
";  c #C45E63",
":  c #C86167",
">  c #C2666E",
",  c #C4696D",
"<  c #C46972",
"1  c #CF6C76",
"2  c #D46E79",
"3  c #C87076",
"4  c #C07778",
"5  c #C57C7C",
"6  c #CB797F",
"7  c #D5727D",
"8  c #D9727D",
"9  c #B58176",
"0  c #BC867B",
"q  c #B9897C",
"w  c #CF7E83",
"e  c #DB7581",
"r  c #E37684",
"t  c #E67886",
"y  c #E77B89",
"u  c #E87F8D",
"i  c #BD9385",
"p  c #BB958C",
"a  c #CC8485",
"s  c #C48888",
"d  c #CF8F8E",
"f  c #D58488",
"g  c #D2888A",
"h  c #C49B8B",
"j  c #CD9397",
"k  c #D39394",
"l  c #DE9294",
"z  c #D19896",
"x  c #D29C9B",
"c  c #DC9B9A",
"v  c #E98693",
"b  c #EA8A97",
"n  c #EB8C99",
"m  c #E3969A",
"M  c #E7999A",
"N  c #E99B9F",
"B  c #C8A593",
"V  c #CDA997",
"C  c #CDAC99",
"Z  c #CFB19D",
"A  c #D0B19E",
"S  c #DCBE9E",
"D  c #ED94A1",
"F  c #EC9DA1",
"G  c #C5A6A1",
"H  c #D5A8AB",
"J  c #D4B6A2",
"K  c #D8BBA6",
"L  c #D9BFA9",
"P  c #D4B4B2",
"I  c #DEB6B7",
"U  c #D2B9B6",
"Y  c #D4BDBA",
"T  c #DCBDBB",
"R  c #E6A7A5",
"E  c #EFA0A5",
"W  c #E4A8A6",
"Q  c #E8AAA8",
"!  c #F0A1A2",
"~  c #F1A2A9",
"^  c #EEB0AE",
"/  c #EFB2B0",
"(  c #F2B6B4",
")  c #F4B8B6",
"_  c #DDC1A0",
"`  c #DCC3AC",
"'  c #DECAAD",
"]  c #DFC7B0",
"[  c #DFCDB1",
"{  c #E0CCAE",
"}  c #EFCEA9",
"|  c #F7D6AE",
" . c #F8D6AE",
".. c #E3CEB2",
"X. c #E5D1B5",
"o. c #E6D3B9",
"O. c #E9D7B9",
"+. c #EADABD",
"@. c #F1D5B1",
"#. c #F8D7B0",
"$. c #F9DAB3",
"%. c #FADEB9",
"&. c #FAE1BD",
"*. c #D8C3C0",
"=. c #E1C7C7",
"-. c #EDDEC1",
";. c #EDDDDC",
":. c #EFE0C3",
">. c #F1E2C7",
",. c #FBE6C4",
"<. c #FCE8C7",
"1. c #F3E6CA",
"2. c #F6E9CC",
"3. c #FCECCC",
"4. c #F7EDD0",
"5. c #FAEED1",
"6. c #FDF3D6",
"7. c #FEF5D8",
"8. c #EDE3E2",
"9. c #F1E4E3",
"0. c #F0E8E7",
"q. c #FAF6F4",
"w. c #FEFEFE",
"e. c None",
/* pixels */
"e.e.e.e.e.e.e.e.e.e.e.e.e.e.e.e. . . . . . . . .#. .e.e.e.e.e.e.e.e.e.e.e.e.e.e.e.e.",
"e.e.e.e.e.e.e.e.e.e.e.e.e. . . . . . . . . . . . . . . . .e.e.e.e.e.e.e.e.e.e.e.e.e.",
"e.e.e.e.e.e.e.e.e.e.e. . . . . .#.#. . .#.#.#.#. . . . . . .#.e.e.e.e.e.e.e.e.e.e.e.",
"e.e.e.e.e.e.e.e.e. . . . . . .#.<.6.7.6.6.3.&.#.$.&. . . . . . .#.e.e.e.e.e.e.e.e.e.",
"e.e.e.e.e.e.e.e. . . . .#.#.3.7.6.7.7.7.7.7.7.7.7.7.6.6.#.#. . . . .e.e.e.e.e.e.e.e.",
"e.e.e.e.e.e.e. . .|  . ._ 1.6.7.7.7.7.7.7.7.7.7.7.6.6.7.6.<. . . . . .e.e.e.e.e.e.e.",
"e.e.e.e.e.e. . .| | } S { 2.' 6.7.7.7.7.7.7.7.7.7.7.7.7.7.7.6. . . . . .e.e.e.e.e.e.",
"e.e.e.e.e. . . .| | | +.2.6.O.[ 6.7.7.7.7.7.7.7.7.7.7.7.7.7.7.6. . . . . .e.e.e.e.e.",
"e.e.e.e. . . . . .5.] J 5.] 7.X.5.+.:.1.:.' 6.6.7.7.7.7.7.7.7.7.3.#.#. . . .e.e.e.e.",
"e.e.e.e. . . . .6.C w.w.0.2.1.7.2.1.2.2.O.+.:.6.7.7.7.7.7.7.7.7.6.<. . . . . .e.e.e.",
"e.e.e. . . .| 6.4.w.Y w.w.C 7.7.7.o.[ +.7.6.2.O.7.7.7.7.7.7.7.7.7.7.6. . . . .e.e.e.",
"e.e. . .| | 3.7.6.8.w.w.w.>.7.5.:.p U i 7.7.{ 7.X.7.7.7.7.7.7.7.7.7.7.6. . . . .e.e.",
"e.e. . . .#.6.7.6.o.U *.J 1.7.] p w.w.w.Z 7.6.7.7.7.7.7.7.7.7.7.7.7.7.7.%. . . .e.e.",
"e. . . .| <.7.6.7.1.-.1.[ 5.7.4.U w.w.p p 7.7.7.7.7.7.7.7.7.7.7.7.7.7.7.6. . . .#.e.",
"e. . . . .6.6.7.7.-...6.7.7.7.7.B w.w.w.C 6.7.7.7.7.7.7.7.7.7.7.7.7.7.7.6. . . . .e.",
"e. . . . .6.6.7.o.r e l - B 6.7.[ ' p Z { 7.7.7.7.7.7.7.7.7.7.7.7.7.7.7.6. . . . .e.",
"e. . . .| 7.6.7.@ t 8 j H ! M s 7.6.:.5.7.7.7.7.7.7.7.7.7.7.7.7.7.7.7.7.7.$. . . .e.",
" . . . .| 6.7.5.t t y ;.H k H F = 7.7.7.7.7.7.7.7.7.7.7.7.7.7.7.7.7.7.7.7.&. . . . .",
" . . . . .7.6.h t t y 7 r 9.9.w w % 7.7.7.7.7.7.7.7.7.7.7.7.7.7.7.7.7.7.7.6. . . .#.",
" . . .| %.6...@ t t y y n , 8 t r ; [ 7.7.7.7.7.7.7.7.7.7.7.7.7.7.7.7.7.7.7. . . .#.",
" . . . .<.7.X.8 t t n n t t t t ; ;   6.7.7.7.7.7.7.7.7.7.7.7.7.7.7.7.7.7.7.#. . . .",
" . . . .3.7.-.t t b t v t t t : ; ; ; B 7.7.7.7.7.7.7.7.7.7.7.7.7.7.7.7.7.6.&.#. . .",
" . . . .3.6...t y n t t t t r ; ; ; ;   7.7.7.7.7.7.7.7.7.7.7.7.7.7.7.7.7.7.&.#. . .",
" . . . .3.2.V y y v t t 2 1 o + a R R - L 7.7.7.7.7.7.7.7.7.7.7.7.7.7.7.7.7.&. . . .",
" . . . .6.+.0 t y b 7 ) ) ) ) ) ) / ) ) - 7.7.7.7.7.7.7.7.7.7.7.7.7.7.7.7.7.&.#. . .",
" . . . .6.o.& t r D 8 ) ) ) ) Q 5 o s / / 5.5.7.7.7.7.7.7.7.7.7.7.7.7.7.7.7.%.#. . .",
"e. . . .6.{ # t y y e 1 < > 8 X X , ) / ) ` ] 6.7.7.7.7.7.7.7.7.7.7.7.7.7.7.#.#. .e.",
"e. . . .6.{ . t y y 3 / y t t 8 + Q d ) ( q -.6.7.7.7.7.7.7.7.7.7.7.7.7.7.7.#.#. .e.",
"e. . . .&.X.& t t 7 w.P ~ y t F c H / ) ) * 6.7.7.7.7.7.7.7.7.7.7.7.7.7.7.6. . . .e.",
"e.e. . .#.+.K t t f ;.a c ^ R k ( z / ) ) * 6.4.7.7.7.7.7.7.7.7.7.7.7.7.7.%. . .e.e.",
"e.e. . .| &.6., t N =.w.x T W P z q.a g R J 6.6.7.7.7.7.7.7.7.7.7.7.7.6.3.#. .#.e.e.",
"e.e.e. .|  .{ >.8 F N T m q.- 9.a m F E a 7.-.7.7.7.7.7.7.7.7.7.7.7.7.&. . . .e.e.e.",
"e.e.e. . . .%.{ 1.# ~ E E N ~ E ! ~ ~ a 2.6.+.7.7.7.7.7.7.7.7.7.7.7.3.#. . . .e.e.e.",
"e.e.e.e. . . .3...5.J 5 N E E E N a h 6.2.O.7.7.7.7.7.7.7.7.7.7.7.7. .#. . .e.e.e.e.",
"e.e.e.e.e. . . .6.6.7.7.7.2.>.2.6.7.7.X.6.7.7.7.7.7.7.7.7.7.7.7.6.,. . . .e.e.e.e.e.",
"e.e.e.e.e.e. . . .6.7.7.7.7.7.7.7.7.7.7.6.7.7.7.7.7.7.7.7.7.7.6.3. . . .e.e.e.e.e.e.",
"e.e.e.e.e.e.e. . . .3.6.7.7.7.7.7.7.7.7.7.7.7.7.7.7.7.7.7.7.6.#.#.#. .e.e.e.e.e.e.e.",
"e.e.e.e.e.e.e.e. .#.#. .<.7.7.7.7.7.7.7.7.7.7.7.7.7.7.6.3.#. . . . .e.e.e.e.e.e.e.e.",
"e.e.e.e.e.e.e.e.e. . . . . .$.<.6.6.7.6.7.7.6.6.7.6.&. .#. . . . .e.e.e.e.e.e.e.e.e.",
"e.e.e.e.e.e.e.e.e.e.e. . .#.#.#. .#.%.<.3.3.,.$. . . . . . . .e.e.e.e.e.e.e.e.e.e.e.",
"e.e.e.e.e.e.e.e.e.e.e.e.e.#. . . . . . . . . . . . . . . .e.e.e.e.e.e.e.e.e.e.e.e.e.",
"e.e.e.e.e.e.e.e.e.e.e.e.e.e.e.e. . . . . . . . .#.e.e.e.e.e.e.e.e.e.e.e.e.e.e.e.e.e."
};
