/* XPM */
static char *result[] = {
/* columns rows colors chars-per-pixel */
"42 42 96 2 ",
"   c gray32",
".  c #DF525C",
"X  c #E54E5A",
"o  c #E0525C",
"O  c #DB5A61",
"+  c #EC5B6A",
"@  c #F05A6A",
"#  c #DB6065",
"$  c #DB6569",
"%  c #DB6C6F",
"&  c #DB6E71",
"*  c #F46D7E",
"=  c #F96B7E",
"-  c #E3737B",
";  c #EF717F",
":  c #F1707F",
">  c #FF6C82",
",  c #EC7782",
"<  c #EB7983",
"1  c #F07080",
"2  c #E58688",
"3  c #E89392",
"4  c #E59D97",
"5  c #E99B97",
"6  c #DDA39A",
"7  c #E6A29D",
"8  c #E8A39E",
"9  c #E59DA2",
"0  c #D2ACA3",
"q  c #DDBEB0",
"w  c #DCBFBC",
"e  c #E0A1A3",
"r  c #EAA6A1",
"t  c #E6AFA4",
"y  c #EBABA5",
"u  c #EFAEAA",
"i  c #F1ABA5",
"p  c #F4AEA9",
"a  c #E6B3A7",
"s  c #E8B7AB",
"d  c #F8B4AE",
"f  c #E4B4B5",
"g  c #E4B8B5",
"h  c #E5B8B8",
"j  c #FAB7B3",
"k  c #FFBCB6",
"l  c #FFBDB9",
"z  c #DEC2B5",
"x  c #F9C9A8",
"c  c #FCD5A7",
"v  c #FDDEA7",
"b  c #E1C6B6",
"n  c #EBC3B5",
"m  c #FACEB1",
"M  c #FAD1B3",
"N  c #FAD4B8",
"B  c #FBDABE",
"V  c #FEE4AD",
"C  c #FFEAAE",
"Z  c #FFECB3",
"A  c #FCE0BC",
"S  c #FFEFBA",
"D  c #FFF1BD",
"F  c #C3C3C3",
"G  c #D1CFCF",
"H  c #E7CCC6",
"J  c #E5CFCD",
"K  c #EAD6C5",
"L  c #EEDDC9",
"P  c #FBDEC2",
"I  c #F1DECA",
"U  c #EBD4D1",
"Y  c #ECDBDB",
"T  c #F0DEDE",
"R  c #FCE1C5",
"E  c #FEECC1",
"W  c #F2E4CF",
"Q  c #FCE5CA",
"!  c #FDE8CE",
"~  c #FFF3C3",
"^  c #FFF6CB",
"/  c #FFF8CD",
"(  c #F3E6D1",
")  c #F6E9D3",
"_  c #FDEDD3",
"`  c #FFF4D3",
"'  c #FFFAD3",
"]  c #FCF4DC",
"[  c #FFFADD",
"{  c #F2E3E2",
"}  c #F6EBEA",
"|  c #F8EFEE",
" . c #FFFDE4",
".. c #F9F3F3",
"X. c #FEFEFE",
"o. c None",
/* pixels */
"o.o.o.o.o.o.o.o.o.o.o.o.o.o.o.o.' / ~ D S S D ~ ^ ' o.o.o.o.o.o.o.o.o.o.o.o.o.o.o.o.",
"o.o.o.o.o.o.o.o.o.o.o.o.o./ D C C C C C C C C C C C C D ' o.o.o.o.o.o.o.o.o.o.o.o.o.",
"o.o.o.o.o.o.o.o.o.o.o.^ Z C C C C C C C C C C C C C C C C Z / o.o.o.o.o.o.o.o.o.o.o.",
"o.o.o.o.o.o.o.o.o.' Z C C C C C S '  . . . . .[ ^ Z C C C C C Z ' o.o.o.o.o.o.o.o.o.",
"o.o.o.o.o.o.o.o.^ C C C C C `  . . . . . . . . . . . ./ C C C C C ^ o.o.o.o.o.o.o.o.",
"o.o.o.o.o.o.o.D C C C C ~  . . . . . . . . . . . . . . . .~ C C C C D o.o.o.o.o.o.o.",
"o.o.o.o.o.o.D C C C C '  . . . . . . . . . . . . . . . . . .' C C C C D o.o.o.o.o.o.",
"o.o.o.o.o.D C C C C `  . . . . . . . . . . . . . . . . . . . . .C C C C ~ o.o.o.o.o.",
"o.o.o.o.^ C C C Z [  . . . . . . . . . . . . . . . . . . . . . . .C C C C ^ o.o.o.o.",
"o.o.o.' C C C Z  . . . . . . . . . . . . . . . . . . . . . . . . .[ C C C C ' o.o.o.",
"o.o.o.Z C C C  . . . . . . . . . . . . . . . . . . . . . . . . . . .' C C C Z o.o.o.",
"o.o./ Z C C '  . . . . . . . . . . . . . . . . . . . . . . . . . . . .D C C Z ' o.o.",
"o.o.Z C C Z  . . . . . . . . . . . . . . . . . . . . . . . . . . . . . .C C C Z o.o.",
"o.' C C C [  . . . . . . . . . . . . . . . . . . . . . . . . . . . . . .D C C C ' o.",
"o.D C C Z  . . . .P R R ]  . . . . . . .] P _  . . . . . . . . . . . . . .C C C ~ o.",
"o.Z C C ^  . . . . . . . .] R Q _ Q R  . ._ R _  . . . . . . . . . . . . .C C C Z o.",
"' C C C [  . . . . . . .] Q !  . . .] P  . . . . . . . . . . . . . . . . .^ C C C ' ",
"' C C C  . . . . . . . . . . . . . . . . . . . . . . . . . . . . . . . . .[ C C C / ",
"^ C C C  . . . . . . . . . . . . . . . . . . . . . . . . . . . . . . . . . .C C C ^ ",
"D C C C  . . . . . . . . .] ( ] m  . .R  .L K ]  . . . . . . . . . . . . . .Z C C ^ ",
"D C C C  . . . . . . . .0 X.X.X.z  .]  .w X.X.X.q  . . . . . . . . . . . . .D C C D ",
"D C C C  . . . . . . . .X.X.X.X.X. . .( X.X.F X.Y  . . . . . . . . . . . . ./ C C ~ ",
"~ C C C  . . . . . .]  ...  X.X.X. . .( X.X.G X.J ]  . . . . . . . . . . . .[ C C ~ ",
"^ C C C  . . . . . ._  .0 L  . .b  . . .(  . .W L Q  . . . . . . . . . . . .[ C C ^ ",
"/ C C C '  . . . . . ._  .L  . . . . . . . . ._  . . . . . . . . . . . . . .[ Z C ' ",
"' C C C ^  . . . . . . ._ !  . .L L _  . .] W W  .Q P  . . . . . . . . . . .` C C ' ",
"o.Z C C C  . . . . . .P  .] # & m h j j u k j o O (  . . . . . . . . . . . .^ C Z o.",
"o.~ C C C  . . . . .!  .] = X X O X.f f X.% X X X @ 7  . . . . . . . . . . .Z C ^ o.",
"o.' C C C /  . . . .] ] = = X X X h & o T X X X X + > , ]  . . . . . . . . .C Z ' o.",
"o.o.Z C C Z  . . . . .1 > > X X X X X X X o X X X + > > > ,  . . . . . . ./ C Z o.o.",
"o.o.' C C C  . . . .s > > > 9 f & i 5 o O p k k 9 } 1 > > > = ]  . . . . .C C / o.o.",
"o.o.o.Z C Z S  . . .1 > > 1 } y j l l 5 k k k k k { } > > > > ;  .M  . .C C D o.o.o.",
"o.o.o.' C C C  . .] > > > 9 | k k k l k k k k k U U } 2 > > > >  .m  .C C C ' o.o.o.",
"o.o.o.o./ C C /  .( > > > i 8 X.y y U 6 a 6 U i } ..d 3 > > > *  .m C C C / o.o.o.o.",
"o.o.o.o.o.~ C C ]  .= > > d d H )  . . . . . . . .L a - > > 1 ) ] Z C C ^ o.o.o.o.o.",
"o.o.o.o.o.o.D C x  .n * * 6 ]  . . . . . . . . . . . . . . . .P S C C E o.o.o.o.o.o.",
"o.o.o.o.o.o.o.^ C B  . . . . . . . .]  .[  . . . . . . . .] ] / C C ^ o.o.o.o.o.o.o.",
"o.o.o.o.o.o.o.o.^ C c  . . . . .Q  ._  ._  . .P ]  . . . . .D C C / o.o.o.o.o.o.o.o.",
"o.o.o.o.o.o.o.o.o.' S C S [  . .! [  . . .M  . . .] ]  ./ Z C S ' o.o.o.o.o.o.o.o.o.",
"o.o.o.o.o.o.o.o.o.o.o.' Z C Z v ' Q  . . . .M [ [ ^ S C C Z ` o.o.o.o.o.o.o.o.o.o.o.",
"o.o.o.o.o.o.o.o.o.o.o.o.o.' ~ Z C V C C C C C C C C C ^ ' o.o.o.o.o.o.o.o.o.o.o.o.o.",
"o.o.o.o.o.o.o.o.o.o.o.o.o.o.o.o.' ' ^ D ~ D ~ ^ ' ' o.o.o.o.o.o.o.o.o.o.o.o.o.o.o.o."
};
